# xmcd
#
# Track frame offsets:
#	150
#	14236
#	28690
#	36248
#	44158
#	66143
#	103232
#	141209
#	208447
#	218508
#	261000
#
# Disc length: 3774 seconds
#
# Revision: 0
# Processed by: cddbd v1.5.1PL0 Copyright (c) Steve Scherf et al.
# Submitted via: audiograbber 1.83.01
#
DISCID=b10ebc0b
DTITLE=BEN ZIMET accompagné par EDDY SCHAFF - CONTES YIDDISH - La Tradition Ora
DTITLE=le des Juifs d'Europe de l'Est
DYEAR=1900
DGENRE=Histoires Juives
TTITLE0=Comment l'argent est venu au monde
TTITLE1=L'histoire du chantre
TTITLE2=L'histoire du roi Salomon
TTITLE3=La première larme
TTITLE4=Le pigeon plumé
TTITLE5=Comment le temps est venu au monde
TTITLE6=Le chemin de la terre promise
TTITLE7=Deux chansons pour 300 roubles
TTITLE8=L'histoire du talmud
TTITLE9=Le roi de pomponico
TTITLE10=Lomir-je zingen	
EXTD=
EXTT0=
EXTT1=
EXTT2=
EXTT3=
EXTT4=
EXTT5=
EXTT6=
EXTT7=
EXTT8=
EXTT9=
EXTT10=
PLAYORDER=
